# This file uses meters as units for non-parametric coordinates.

mtllib black_knight_sword.mtl
g default
v -1391.411093 -69.155634 18.209769
v -1320.700415 -69.155634 -0.000000
v -1391.411093 422.504609 18.209769
v -1320.700415 422.504609 -0.000000
v -1462.121771 422.504609 0.000000
v -1391.411093 422.504609 -18.209769
v -1462.121771 -69.155634 0.000000
v -1391.411093 -69.155634 -18.209769
v -1391.411093 487.320762 0.000000
v -1536.229100 -74.174914 0.000000
v -1391.411093 -74.174914 -37.294272
v -1246.593087 -74.174914 -0.000000
v -1391.411093 -74.174914 37.294272
v -1536.229100 -87.596606 0.000000
v -1391.411093 -87.596606 -37.294272
v -1246.593087 -87.596606 -0.000000
v -1391.411093 -87.596606 37.294272
v -1424.384737 -93.085122 0.000000
v -1391.411093 -93.085122 -17.039573
v -1358.437449 -93.085122 -0.000000
v -1391.411093 -93.085122 17.039573
v -1409.570885 -216.636076 0.000000
v -1391.411093 -216.636076 -9.384313
v -1373.251301 -216.636076 -0.000000
v -1391.411093 -216.636076 9.384313
v -1423.007470 -242.246273 0.000000
v -1391.411093 -242.246273 -16.327852
v -1359.814716 -242.246273 -0.000000
v -1391.411093 -242.246273 16.327852
vt 0.375000 0.000000
vt 0.625000 0.000000
vt 0.375000 0.250000
vt 0.625000 0.250000
vt 0.375000 0.500000
vt 0.625000 0.500000
vt 0.375000 0.750000
vt 0.625000 0.750000
vt 0.375000 1.000000
vt 0.625000 1.000000
vt 0.875000 0.000000
vt 0.875000 0.250000
vt 0.125000 0.000000
vt 0.125000 0.250000
vt 0.500000 0.375000
vt 0.375000 0.750000
vt 0.625000 0.750000
vt 0.625000 1.000000
vt 0.375000 1.000000
vt 0.375000 0.750000
vt 0.625000 0.750000
vt 0.625000 1.000000
vt 0.375000 1.000000
vt 0.375000 0.750000
vt 0.625000 0.750000
vt 0.625000 1.000000
vt 0.375000 1.000000
vt 0.375000 0.750000
vt 0.625000 0.750000
vt 0.625000 1.000000
vt 0.375000 1.000000
vt 0.375000 0.750000
vt 0.625000 0.750000
vt 0.625000 1.000000
vt 0.375000 1.000000
vn 0.000000 0.067137 0.997744
vn 0.248093 0.101782 0.963374
vn 0.249388 0.000000 0.968404
vn 0.249388 0.000000 0.968404
vn -0.000000 1.000000 0.000000
vn 0.675714 0.737164 -0.000000
vn -0.000000 0.270473 -0.962727
vn -0.249388 0.000000 -0.968404
vn -0.249388 0.000000 -0.968404
vn -0.000000 0.067137 -0.997744
vn -0.248093 0.101782 -0.963374
vn -0.000000 -1.000000 -0.000000
vn -0.000000 -1.000000 -0.000000
vn -0.000000 -1.000000 -0.000000
vn -0.000000 -1.000000 -0.000000
vn 0.248093 0.101782 -0.963374
vn 0.249388 0.000000 -0.968404
vn 0.249388 0.000000 -0.968404
vn -0.248093 0.101782 0.963374
vn -0.249388 0.000000 0.968404
vn -0.249388 0.000000 0.968404
vn -0.675714 0.737164 0.000000
vn -0.000000 0.270473 0.962727
vn -0.000000 0.967111 -0.254353
vn -0.065363 0.965043 -0.253810
vn 0.065363 0.965043 -0.253809
vn 0.000000 0.967111 0.254353
vn 0.065363 0.965043 0.253810
vn -0.065363 0.965043 0.253809
vn -0.249388 0.000000 -0.968404
vn 0.000000 0.000000 -1.000000
vn 0.000000 -0.654385 -0.756161
vn -0.246798 -0.184139 -0.951412
vn 0.249388 0.000000 -0.968404
vn 0.246798 -0.184139 -0.951412
vn 0.249388 0.000000 0.968404
vn 0.000000 0.000000 1.000000
vn -0.000000 -0.654385 0.756161
vn 0.246798 -0.184139 0.951412
vn -0.249388 0.000000 0.968404
vn -0.246798 -0.184139 0.951412
vn 0.000000 -0.980268 -0.197675
vn -0.060300 -0.978484 -0.197316
vn 0.060301 -0.978484 -0.197316
vn -0.000000 -0.980268 0.197675
vn 0.060300 -0.978484 0.197316
vn -0.060301 -0.978484 0.197316
vn -0.458394 -0.054962 -0.887048
vn -0.458394 -0.054962 -0.887048
vn -0.459087 -0.002079 -0.888389
vn -0.459084 0.004317 -0.888383
vn 0.458394 -0.054962 -0.887048
vn 0.458394 -0.054962 -0.887048
vn 0.459083 0.004317 -0.888383
vn 0.459087 -0.002079 -0.888389
vn 0.458394 -0.054962 0.887048
vn 0.458394 -0.054962 0.887048
vn 0.459087 -0.002079 0.888389
vn 0.459084 0.004317 0.888383
vn -0.458394 -0.054962 0.887048
vn -0.458394 -0.054962 0.887048
vn -0.459083 0.004317 0.888383
vn -0.459087 -0.002079 0.888389
vn -0.446323 0.234167 -0.863690
vn -0.446323 0.234167 -0.863690
vn 0.446323 0.234167 -0.863691
vn 0.446323 0.234167 -0.863691
vn 0.446323 0.234167 0.863690
vn 0.446323 0.234167 0.863690
vn -0.446323 0.234167 0.863691
vn -0.446323 0.234167 0.863691
s 1
g pCube10
usemtl initialShadingGroup
f 1/1/1 2/2/2 4/4/3 3/3/4
s 2
f 9/15/5 4/4/6 6/6/7
s 3
f 5/5/8 6/6/9 8/8/10 7/7/11
s off
f 26/32/12 27/33/13 28/34/14 29/35/15
s 3
f 2/2/16 8/11/10 6/12/17 4/4/18
s 1
f 7/13/19 1/1/1 3/3/20 5/14/21
s 2
f 5/5/22 9/15/5 6/6/7
f 3/3/23 9/15/5 5/5/22
f 3/3/23 4/4/6 9/15/5
s 3
f 7/7/11 8/8/10 11/17/24 10/16/25
f 8/8/10 2/10/16 12/18/26 11/17/24
s 1
f 2/10/2 1/9/1 13/19/27 12/18/28
f 1/9/1 7/7/19 10/16/29 13/19/27
s 6
f 10/16/30 11/17/31 15/21/32 14/20/33
f 11/17/31 12/18/34 16/22/35 15/21/32
s 7
f 12/18/36 13/19/37 17/23/38 16/22/39
f 13/19/37 10/16/40 14/20/41 17/23/38
s 6
f 14/20/33 15/21/32 19/25/42 18/24/43
f 15/21/32 16/22/35 20/26/44 19/25/42
s 7
f 16/22/39 17/23/38 21/27/45 20/26/46
f 17/23/38 14/20/41 18/24/47 21/27/45
s 8
f 18/24/48 19/25/49 23/29/50 22/28/51
s 9
f 19/25/52 20/26/53 24/30/54 23/29/55
s 10
f 20/26/56 21/27/57 25/31/58 24/30/59
s 11
f 21/27/60 18/24/61 22/28/62 25/31/63
s 8
f 22/28/51 23/29/50 27/33/64 26/32/65
s 9
f 23/29/55 24/30/54 28/34/66 27/33/67
s 10
f 24/30/59 25/31/58 29/35/68 28/34/69
s 11
f 25/31/63 22/28/62 26/32/70 29/35/71
