# This file uses meters as units for non-parametric coordinates.

mtllib henchman.mtl
g default
v -88.919449 271.903839 748.228577
v -88.919449 228.161224 828.394531
v -37.643951 281.043762 797.869263
v -88.919449 319.777618 814.781250
v -88.919449 303.644104 839.045471
v -13.668060 39.711273 774.203613
v -24.836639 276.988464 767.692322
v -24.836639 276.988464 719.484436
v -13.668060 39.711273 712.973145
v -88.919449 353.425751 754.872498
v 3.011124 212.750870 774.203613
v 3.011124 212.750870 712.973145
v -24.836639 202.474396 774.203613
v -24.836639 202.474396 712.973145
v -88.919449 276.988464 797.502380
v -88.919449 207.612656 810.195984
v -88.919449 39.711273 810.195984
v -88.919449 39.711273 664.981995
v -88.919449 207.612656 667.458984
v -88.919449 276.988464 677.675537
v -88.919449 39.711273 737.588928
v -4.898117 39.711273 743.588379
v -16.066666 202.474396 743.588440
v 16.423294 212.750870 743.588440
v -16.066666 276.988464 743.588440
v 46.305527 98.109161 759.738403
v 55.233063 101.907280 744.047791
v -11.585648 220.850250 759.738403
v 0.003052 227.402740 744.047791
v -18.758820 218.553680 743.895142
v -11.375763 220.949249 728.204468
v 42.556656 96.781525 743.895142
v 46.515396 98.208153 730.730225
v 41.952148 107.339172 759.738403
v 51.352844 112.787849 744.047791
v 42.162018 107.438164 728.204468
v 34.778961 105.042564 743.895142
v 60.407761 50.286728 728.684875
v 60.407761 50.286728 760.113831
v 49.537125 85.295860 726.925781
v 49.537125 85.295860 761.872803
v 64.782059 90.787025 726.925781
v 64.782059 90.787025 761.872803
v 68.289291 52.535683 728.684875
v 68.289291 52.535683 760.113831
v 60.307373 65.599281 726.925781
v 60.307373 65.599281 761.872803
v 72.669617 67.528046 761.872803
v 72.669617 67.528046 726.925781
v 37.304535 102.120277 730.119446
v 37.304535 102.120277 758.853821
v 52.549515 107.611427 758.853821
v 52.549515 107.611427 730.119446
v 50.296478 86.711800 766.973572
v 62.052902 90.946411 766.973572
v 54.728638 94.482826 772.882202
v 44.917603 90.948990 772.882202
v 58.262100 68.958290 773.379883
v 64.329575 71.143806 773.379883
v 61.591599 71.557243 779.731567
v 55.524094 69.371735 779.731567
v -68.980499 -37.032753 813.333801
v -30.990540 -37.032753 813.333801
v -68.980499 -24.887207 813.333801
v -30.990540 -24.887207 813.333801
v -73.049332 -2.860825 792.055298
v -25.673477 -2.860825 792.055298
v -70.661407 11.404541 770.776733
v -24.898239 11.404541 770.776733
v -69.677261 48.081467 749.498169
v -25.673477 48.081467 749.498169
v -71.607666 48.081467 720.939270
v -25.673477 48.081467 720.939270
v -71.607666 -37.032753 708.457947
v -25.673477 -37.032753 708.457947
v -69.677261 -37.032753 749.498169
v -25.673477 -37.032753 749.498169
v -70.661407 -37.032753 770.776733
v -24.898239 -37.032753 770.776733
v -73.049332 -37.032753 792.055298
v -25.673477 -37.032753 792.055298
v -140.194962 281.043762 797.869263
v -180.850021 212.750870 774.203613
v -153.002243 276.988464 767.692322
v -153.002243 276.988464 719.484436
v -180.850021 212.750870 712.973145
v -172.940781 39.711273 743.588379
v -164.170822 39.711273 774.203613
v -194.262192 212.750870 743.588440
v -161.772217 276.988464 743.588440
v -153.002243 202.474396 774.203613
v -161.772217 202.474396 743.588440
v -153.002243 202.474396 712.973145
v -164.170822 39.711273 712.973145
v -219.791046 107.339172 759.738403
v -229.191742 112.787849 744.047791
v -177.841965 227.402740 744.047791
v -166.253250 220.850250 759.738403
v -166.463120 220.949249 728.204468
v -159.080093 218.553680 743.895142
v -220.000916 107.438164 728.204468
v -212.617859 105.042564 743.895142
v -220.395569 96.781525 743.895142
v -224.354309 98.208153 730.730225
v -233.071960 101.907280 744.047791
v -224.144409 98.109161 759.738403
v -238.146271 65.599281 726.925781
v -238.146271 65.599281 761.872803
v -227.376038 85.295860 761.872803
v -227.376038 85.295860 726.925781
v -215.143433 102.120277 730.119446
v -215.143433 102.120277 758.853821
v -230.388428 107.611427 758.853821
v -230.388428 107.611427 730.119446
v -242.620972 90.787025 726.925781
v -242.620972 90.787025 761.872803
v -250.508514 67.528046 761.872803
v -250.508514 67.528046 726.925781
v -246.128204 52.535683 728.684875
v -246.128204 52.535683 760.113831
v -238.246643 50.286728 760.113831
v -238.246643 50.286728 728.684875
v -236.101013 68.958290 773.379883
v -242.168488 71.143806 773.379883
v -239.430511 71.557243 779.731567
v -233.362976 69.371735 779.731567
v -239.891785 90.946411 766.973572
v -228.135376 86.711800 766.973572
v -232.567535 94.482826 772.882202
v -222.756500 90.948990 772.882202
v -108.858398 -37.032753 813.333801
v -146.848373 -37.032753 813.333801
v -146.848373 -24.887207 813.333801
v -108.858398 -24.887207 813.333801
v -152.165436 -2.860825 792.055298
v -104.789566 -2.860825 792.055298
v -152.940674 11.404541 770.776733
v -107.177505 11.404541 770.776733
v -152.165436 48.081467 749.498169
v -108.161636 48.081467 749.498169
v -152.165436 48.081467 720.939270
v -106.231232 48.081467 720.939270
v -152.165436 -37.032753 708.457947
v -106.231232 -37.032753 708.457947
v -152.165436 -37.032753 749.498169
v -108.161636 -37.032753 749.498169
v -152.940674 -37.032753 770.776733
v -107.177505 -37.032753 770.776733
v -152.165436 -37.032753 792.055298
v -104.789566 -37.032753 792.055298
vt 0.500000 0.000000
vt 0.500000 0.500000
vt 0.750000 0.250000
vt 0.500000 0.500000
vt 0.625000 0.500000
vt 0.750000 0.500000
vt 0.500000 1.000000
vt 0.500000 0.817024
vt 0.500000 0.250000
vt 0.500000 0.176904
vt 0.625000 0.182318
vt 0.625000 0.250000
vt 0.500000 0.375000
vt 0.500000 0.500000
vt 0.500000 0.573096
vt 0.625000 0.500000
vt 0.625000 0.567682
vt 0.500000 1.000000
vt 0.500000 0.875000
vt 0.625000 0.875000
vt 0.625000 1.000000
vt 0.750000 0.182318
vt 0.750000 0.250000
vt 0.625000 0.375000
vt 0.625000 0.171491
vt 0.750000 0.171490
vt 0.625000 0.578510
vt 0.500000 0.000000
vt 0.625000 0.000000
vt 0.750000 0.000000
vt 0.500000 0.750000
vt 0.625000 0.750000
vt 0.875000 0.000000
vt 0.875000 0.171490
vt 0.875000 0.182318
vt 0.875000 0.250000
vt 0.375000 0.018800
vt 0.625000 0.018800
vt 0.625000 0.250000
vt 0.375000 0.250000
vt 0.625000 0.500000
vt 0.375000 0.500000
vt 0.625000 0.731200
vt 0.375000 0.731200
vt 0.375000 0.750000
vt 0.625000 0.750000
vt 0.625000 1.000000
vt 0.375000 1.000000
vt 0.875000 0.018800
vt 0.875000 0.250000
vt 0.125000 0.018800
vt 0.125000 0.250000
vt 0.375000 0.000000
vt 0.625000 0.000000
vt 0.875000 0.000000
vt 0.125000 0.000000
vt 0.459693 0.223589
vt 0.538753 0.223589
vt 0.538753 0.268594
vt 0.459693 0.268594
vt 0.459693 0.268594
vt 0.538753 0.268594
vt 0.538753 0.347654
vt 0.459693 0.347654
vt 0.459693 0.347654
vt 0.538753 0.347654
vt 0.538753 0.392660
vt 0.459693 0.392660
vt 0.459693 0.426714
vt 0.538753 0.426714
vt 0.538753 0.347654
vt 0.459693 0.347654
vt 0.617813 0.223589
vt 0.617813 0.268594
vt 0.380633 0.223589
vt 0.380633 0.268594
vt 0.617813 0.189534
vt 0.380633 0.189534
vt 0.538753 0.268594
vt 0.538753 0.347654
vt 0.538753 0.347654
vt 0.538753 0.268594
vt 0.538753 0.347654
vt 0.538753 0.268594
vt 0.538753 0.347654
vt 0.538753 0.268594
vt 0.375000 0.000000
vt 0.625000 0.000000
vt 0.625000 0.250000
vt 0.375000 0.250000
vt 0.625000 0.312500
vt 0.375000 0.312500
vt 0.625000 0.375000
vt 0.375000 0.375000
vt 0.625000 0.437500
vt 0.375000 0.437500
vt 0.625000 0.500000
vt 0.375000 0.500000
vt 0.625000 0.750000
vt 0.375000 0.750000
vt 0.625000 0.812500
vt 0.375000 0.812500
vt 0.625000 0.875000
vt 0.375000 0.875000
vt 0.625000 0.937500
vt 0.375000 0.937500
vt 0.625000 1.000000
vt 0.375000 1.000000
vt 0.812500 0.000000
vt 0.875000 0.000000
vt 0.875000 0.250000
vt 0.812500 0.250000
vt 0.750000 0.000000
vt 0.750000 0.250000
vt 0.687500 0.000000
vt 0.687500 0.250000
vt 0.125000 0.000000
vt 0.187500 0.000000
vt 0.187500 0.250000
vt 0.125000 0.250000
vt 0.250000 0.000000
vt 0.250000 0.250000
vt 0.312500 0.000000
vt 0.312500 0.250000
vt 0.500000 0.000000
vt 0.750000 0.250000
vt 0.500000 0.500000
vt 0.500000 0.817024
vt 0.625000 0.500000
vt 0.500000 1.000000
vt 0.750000 0.500000
vt 0.500000 0.500000
vt 0.500000 0.250000
vt 0.500000 0.176904
vt 0.625000 0.182318
vt 0.625000 0.250000
vt 0.500000 0.573096
vt 0.500000 0.500000
vt 0.625000 0.500000
vt 0.625000 0.567682
vt 0.500000 1.000000
vt 0.500000 0.875000
vt 0.625000 0.875000
vt 0.625000 1.000000
vt 0.750000 0.182318
vt 0.750000 0.250000
vt 0.500000 0.375000
vt 0.625000 0.375000
vt 0.625000 0.171491
vt 0.750000 0.171490
vt 0.625000 0.578510
vt 0.500000 0.000000
vt 0.625000 0.000000
vt 0.750000 0.000000
vt 0.500000 0.750000
vt 0.625000 0.750000
vt 0.875000 0.000000
vt 0.875000 0.171490
vt 0.875000 0.182318
vt 0.875000 0.250000
vt 0.375000 0.018800
vt 0.625000 0.018800
vt 0.625000 0.250000
vt 0.375000 0.250000
vt 0.625000 0.500000
vt 0.375000 0.500000
vt 0.625000 0.731200
vt 0.375000 0.731200
vt 0.375000 0.750000
vt 0.625000 0.750000
vt 0.625000 1.000000
vt 0.375000 1.000000
vt 0.875000 0.018800
vt 0.875000 0.250000
vt 0.125000 0.018800
vt 0.125000 0.250000
vt 0.375000 0.000000
vt 0.625000 0.000000
vt 0.875000 0.000000
vt 0.125000 0.000000
vt 0.459693 0.223589
vt 0.538753 0.223589
vt 0.538753 0.268594
vt 0.459693 0.268594
vt 0.459693 0.268594
vt 0.538753 0.268594
vt 0.538753 0.347654
vt 0.459693 0.347654
vt 0.459693 0.347654
vt 0.538753 0.347654
vt 0.538753 0.392660
vt 0.459693 0.392660
vt 0.459693 0.426714
vt 0.538753 0.426714
vt 0.538753 0.347654
vt 0.459693 0.347654
vt 0.617813 0.223589
vt 0.617813 0.268594
vt 0.380633 0.223589
vt 0.380633 0.268594
vt 0.617813 0.189534
vt 0.380633 0.189534
vt 0.538753 0.268594
vt 0.538753 0.347654
vt 0.538753 0.347654
vt 0.538753 0.268594
vt 0.538753 0.347654
vt 0.538753 0.268594
vt 0.538753 0.347654
vt 0.538753 0.268594
vt 0.375000 0.000000
vt 0.625000 0.000000
vt 0.625000 0.250000
vt 0.375000 0.250000
vt 0.625000 0.312500
vt 0.375000 0.312500
vt 0.625000 0.375000
vt 0.375000 0.375000
vt 0.625000 0.437500
vt 0.375000 0.437500
vt 0.625000 0.500000
vt 0.375000 0.500000
vt 0.625000 0.750000
vt 0.375000 0.750000
vt 0.625000 0.812500
vt 0.375000 0.812500
vt 0.625000 0.875000
vt 0.375000 0.875000
vt 0.625000 0.937500
vt 0.375000 0.937500
vt 0.625000 1.000000
vt 0.375000 1.000000
vt 0.812500 0.000000
vt 0.875000 0.000000
vt 0.875000 0.250000
vt 0.812500 0.250000
vt 0.750000 0.000000
vt 0.750000 0.250000
vt 0.687500 0.000000
vt 0.687500 0.250000
vt 0.125000 0.000000
vt 0.187500 0.000000
vt 0.187500 0.250000
vt 0.125000 0.250000
vt 0.250000 0.000000
vt 0.250000 0.250000
vt 0.312500 0.000000
vt 0.312500 0.250000
vn -0.000000 -0.236856 -0.971545
vn 0.982024 -0.105285 -0.156667
vn -0.000000 -0.925648 0.378386
vn -0.000000 0.166210 0.986090
vn -0.000000 0.973262 -0.229696
vn 0.000000 0.305993 0.952034
vn 0.000000 0.078426 0.996920
vn 0.606870 0.087362 0.789985
vn 0.575440 0.413262 0.705750
vn 0.000000 0.088670 -0.996061
vn 0.000000 0.396439 -0.918061
vn 0.606495 0.442635 -0.660484
vn 0.657308 0.080421 -0.749319
vn 0.000000 -0.228070 0.973645
vn 0.000000 -1.000000 0.000000
vn 0.856428 -0.516266 -0.000000
vn 0.620398 -0.309767 0.720521
vn 0.999261 0.038444 -0.000000
vn 0.824080 0.566474 0.000000
vn 0.000000 0.999808 0.019596
vn 0.631725 -0.053387 0.773352
vn 0.990928 -0.134393 0.000000
vn 0.690157 -0.051155 -0.721849
vn -0.000000 -0.189041 -0.981969
vn 0.674705 -0.295063 -0.676544
vn 0.007781 -0.020912 0.999751
vn 0.910878 0.412608 0.007408
vn 0.864622 0.502370 0.007299
vn -0.047184 0.072623 0.996243
vn -0.033145 0.079364 -0.996295
vn -0.949469 -0.313777 -0.007285
vn 0.024104 -0.018054 -0.999546
vn -0.899158 -0.437562 -0.007353
vn -0.297848 -0.954589 -0.006853
vn 0.296566 -0.609239 -0.735443
vn 0.962845 -0.270001 0.005339
vn 0.279927 -0.561128 0.778958
vn -0.950398 -0.311036 0.000000
vn -0.950398 -0.311036 0.000000
vn -0.877395 -0.479768 0.000000
vn -0.877395 -0.479768 0.000000
vn -0.338881 0.940829 0.000000
vn -0.329121 0.913733 0.238270
vn -0.328629 0.912366 0.244113
vn -0.338881 0.940829 0.000000
vn 0.947027 0.321155 0.000000
vn 0.947027 0.321155 0.000000
vn 0.993969 0.109661 0.000000
vn 0.993969 0.109661 0.000000
vn 0.274393 -0.961618 0.000000
vn 0.274393 -0.961618 0.000000
vn 0.274393 -0.961618 0.000000
vn 0.274393 -0.961618 0.000000
vn 0.331827 -0.921238 0.203007
vn 0.331827 -0.921238 0.203007
vn 0.331827 -0.921238 0.203007
vn 0.331827 -0.921238 0.203007
vn 0.331600 -0.920612 0.206190
vn 0.331600 -0.920612 0.206190
vn 0.738375 0.471169 0.482496
vn -0.247766 0.687871 0.682236
vn -0.391194 -0.807716 0.441091
vn 0.379443 -0.808352 0.450100
vn 0.352049 0.479469 0.803848
vn -0.364035 0.483203 0.796237
vn 0.512823 0.641106 0.570960
vn -0.542031 0.658775 0.521745
vn 0.705658 0.463833 0.535635
vn -0.705017 0.481274 0.520889
vn 0.776536 0.508342 0.372263
vn -0.761544 0.508723 0.401562
vn 0.598828 0.343697 -0.723379
vn -0.616090 0.340662 -0.710200
vn 0.547126 -0.259012 -0.795969
vn -0.561972 -0.256748 -0.786300
vn 0.840683 -0.541437 -0.009930
vn -0.834174 -0.551182 0.018764
vn 0.770773 -0.637076 -0.006618
vn -0.755362 -0.653081 -0.053980
vn 0.608829 -0.790307 0.068867
vn -0.623626 -0.781720 -0.002002
vn -0.982024 -0.105285 -0.156667
vn -0.575440 0.413262 0.705750
vn -0.606870 0.087361 0.789985
vn -0.657308 0.080421 -0.749319
vn -0.606494 0.442635 -0.660484
vn -0.620398 -0.309767 0.720521
vn -0.856428 -0.516266 -0.000000
vn -0.824080 0.566474 0.000000
vn -0.999261 0.038444 -0.000000
vn -0.631725 -0.053387 0.773352
vn -0.990928 -0.134393 0.000000
vn -0.690157 -0.051155 -0.721849
vn -0.674705 -0.295063 -0.676544
vn -0.007781 -0.020911 0.999751
vn 0.047184 0.072624 0.996243
vn -0.864622 0.502370 0.007299
vn -0.910878 0.412609 0.007408
vn 0.949469 -0.313777 -0.007286
vn 0.033146 0.079364 -0.996294
vn 0.899159 -0.437561 -0.007353
vn -0.024103 -0.018054 -0.999547
vn 0.297847 -0.954589 -0.006853
vn -0.279927 -0.561129 0.778958
vn -0.962846 -0.270000 0.005339
vn -0.296566 -0.609238 -0.735444
vn 0.950398 -0.311036 0.000000
vn 0.877395 -0.479768 0.000000
vn 0.877395 -0.479768 0.000000
vn 0.950398 -0.311036 0.000000
vn 0.338881 0.940829 0.000000
vn 0.338881 0.940829 0.000000
vn 0.328629 0.912366 0.244113
vn 0.329121 0.913733 0.238270
vn -0.947027 0.321155 0.000000
vn -0.993969 0.109661 0.000000
vn -0.993969 0.109661 0.000000
vn -0.947027 0.321155 0.000000
vn -0.274393 -0.961618 0.000000
vn -0.274393 -0.961618 0.000000
vn -0.274393 -0.961618 0.000000
vn -0.274393 -0.961618 0.000000
vn -0.331827 -0.921238 0.203007
vn -0.331827 -0.921238 0.203007
vn -0.331827 -0.921238 0.203007
vn -0.331827 -0.921238 0.203007
vn -0.331600 -0.920612 0.206190
vn -0.331600 -0.920612 0.206190
vn -0.738375 0.471169 0.482496
vn 0.247766 0.687871 0.682236
vn 0.391194 -0.807716 0.441091
vn 0.364035 0.483202 0.796237
vn -0.352049 0.479468 0.803848
vn -0.379443 -0.808352 0.450100
vn 0.542031 0.658775 0.521745
vn -0.512822 0.641106 0.570960
vn 0.705017 0.481274 0.520890
vn -0.705658 0.463833 0.535635
vn 0.761544 0.508723 0.401562
vn -0.776536 0.508342 0.372263
vn 0.616090 0.340662 -0.710200
vn -0.598828 0.343697 -0.723379
vn 0.561972 -0.256749 -0.786300
vn -0.547126 -0.259012 -0.795969
vn 0.834174 -0.551182 0.018764
vn -0.840683 -0.541437 -0.009930
vn 0.755361 -0.653081 -0.053980
vn -0.770773 -0.637076 -0.006618
vn 0.623626 -0.781720 -0.002002
vn -0.608829 -0.790307 0.068867
s 1
g pPyramid5
usemtl initialShadingGroup
f 1/1/1 3/3/2 2/2/3
f 5/8/4 3/5/2 4/7/5
f 3/5/2 1/6/1 4/7/5
f 2/4/3 3/5/2 5/8/4
s 2
f 15/9/6 16/10/7 11/11/8 7/12/9
f 19/15/10 20/14/11 8/16/12 12/17/13
f 17/18/14 21/19/15 22/20/16 6/21/17
f 11/11/8 24/22/18 25/23/19 7/12/9
f 8/16/12 10/13/20 7/12/9 25/24/19
f 16/10/7 13/25/21 11/11/8
f 13/25/21 23/26/22 24/22/18 11/11/8
f 19/15/10 12/17/13 14/27/23
f 16/10/7 17/28/14 6/29/17 13/25/21
f 6/29/17 22/30/16 23/26/22 13/25/21
f 18/31/24 19/15/10 14/27/23 9/32/25
f 10/13/20 15/9/6 7/12/9
f 20/14/11 10/13/20 8/16/12
f 22/20/16 21/19/15 18/31/24 9/32/25
f 23/26/22 22/30/16 9/33/25 14/34/23
f 24/22/18 23/26/22 14/34/23 12/35/13
f 25/23/19 24/22/18 12/35/13 8/36/12
s 5
f 34/37/26 35/38/27 29/39/28 28/40/29
f 28/40/29 29/39/28 31/41/30 30/42/31
f 30/42/31 31/41/30 36/43/32 37/44/33
f 32/45/34 33/46/35 27/47/36 26/48/37
f 35/38/27 36/49/32 31/50/30 29/39/28
f 37/51/33 34/37/26 28/40/29 30/52/31
f 26/53/37 27/54/36 35/38/27 34/37/26
f 27/54/36 33/55/35 36/49/32 35/38/27
f 37/44/33 36/43/32 33/46/35 32/45/34
f 32/56/34 26/53/37 34/37/26 37/51/33
s 6
usemtl hand:initialShadingGroup
f 46/57/38 47/58/39 41/59/40 40/60/41
f 50/61/42 51/62/43 52/63/44 53/64/45
f 42/65/46 43/66/47 48/67/48 49/68/49
f 44/69/50 45/70/51 39/71/52 38/72/53
f 47/58/39 48/73/48 43/74/47 41/59/40
f 49/75/49 46/57/38 40/60/41 42/76/46
f 38/72/53 39/71/52 47/58/39 46/57/38
f 39/71/52 45/77/51 48/73/48 47/58/39
f 49/68/49 48/67/48 45/70/51 44/69/50
f 44/78/50 38/72/53 46/57/38 49/75/49
f 40/60/41 41/59/40 51/62/43 50/61/42
f 58/79/54 59/80/55 60/81/56 61/82/57
f 43/66/47 42/65/46 53/64/45 52/63/44
f 42/65/46 40/60/41 50/61/42 53/64/45
f 41/59/40 43/66/47 55/83/58 54/84/59
f 43/66/47 52/63/44 56/85/60 55/83/58
f 52/63/44 51/62/43 57/86/61 56/85/60
f 51/62/43 41/59/40 54/84/59 57/86/61
f 54/84/59 55/83/58 59/80/55 58/79/54
f 55/83/58 56/85/60 60/81/56 59/80/55
f 56/85/60 57/86/61 61/82/57 60/81/56
f 57/86/61 54/84/59 58/79/54 61/82/57
s 8
usemtl initialShadingGroup
f 62/87/62 63/88/63 65/89/64 64/90/65
f 64/90/65 65/89/64 67/91/66 66/92/67
f 66/92/67 67/91/66 69/93/68 68/94/69
f 68/94/69 69/93/68 71/95/70 70/96/71
f 70/96/71 71/95/70 73/97/72 72/98/73
f 72/98/73 73/97/72 75/99/74 74/100/75
f 74/100/75 75/99/74 77/101/76 76/102/77
f 76/102/77 77/101/76 79/103/78 78/104/79
f 78/104/79 79/103/78 81/105/80 80/106/81
f 80/106/81 81/105/80 63/107/63 62/108/62
f 77/109/76 75/110/74 73/111/72 71/112/70
f 79/113/78 77/109/76 71/112/70 69/114/68
f 81/115/80 79/113/78 69/114/68 67/116/66
f 63/88/63 81/115/80 67/116/66 65/89/64
f 74/117/75 76/118/77 70/119/71 72/120/73
f 76/118/77 78/121/79 68/122/69 70/119/71
f 78/121/79 80/123/81 66/124/67 68/122/69
f 80/123/81 62/87/62 64/90/65 66/124/67
s 1
f 1/125/1 2/127/3 82/126/82
f 5/128/4 4/130/5 82/129/82
f 82/129/82 4/130/5 1/131/1
f 2/132/3 5/128/4 82/129/82
s 2
f 15/133/6 84/136/83 83/135/84 16/134/7
f 19/137/10 86/140/85 85/139/86 20/138/11
f 17/141/14 88/144/87 87/143/88 21/142/15
f 83/135/84 84/136/83 90/146/89 89/145/90
f 85/139/86 90/148/89 84/136/83 10/147/20
f 16/134/7 83/135/84 91/149/91
f 91/149/91 83/135/84 89/145/90 92/150/92
f 19/137/10 93/151/93 86/140/85
f 16/134/7 91/149/91 88/153/87 17/152/14
f 88/153/87 91/149/91 92/150/92 87/154/88
f 18/155/24 94/156/94 93/151/93 19/137/10
f 10/147/20 84/136/83 15/133/6
f 20/138/11 85/139/86 10/147/20
f 87/143/88 94/156/94 18/155/24 21/142/15
f 92/150/92 93/158/93 94/157/94 87/154/88
f 89/145/90 86/159/85 93/158/93 92/150/92
f 90/146/89 85/160/86 86/159/85 89/145/90
s 9
f 95/161/95 98/164/96 97/163/97 96/162/98
f 98/164/96 100/166/99 99/165/100 97/163/97
f 100/166/99 102/168/101 101/167/102 99/165/100
f 103/169/103 106/172/104 105/171/105 104/170/106
f 96/162/98 97/163/97 99/174/100 101/173/102
f 102/175/101 100/176/99 98/164/96 95/161/95
f 106/177/104 95/161/95 96/162/98 105/178/105
f 105/178/105 96/162/98 101/173/102 104/179/106
f 102/168/101 103/169/103 104/170/106 101/167/102
f 103/180/103 102/175/101 95/161/95 106/177/104
s 11
usemtl hand:initialShadingGroup
f 107/181/107 110/184/108 109/183/109 108/182/110
f 111/185/111 114/188/112 113/187/113 112/186/114
f 115/189/115 118/192/116 117/191/117 116/190/118
f 119/193/119 122/196/120 121/195/121 120/194/122
f 108/182/110 109/183/109 116/198/118 117/197/117
f 118/199/116 115/200/115 110/184/108 107/181/107
f 122/196/120 107/181/107 108/182/110 121/195/121
f 121/195/121 108/182/110 117/197/117 120/201/122
f 118/192/116 119/193/119 120/194/122 117/191/117
f 119/202/119 118/199/116 107/181/107 122/196/120
f 110/184/108 111/185/111 112/186/114 109/183/109
f 123/203/123 126/206/124 125/205/125 124/204/126
f 116/190/118 113/187/113 114/188/112 115/189/115
f 115/189/115 114/188/112 111/185/111 110/184/108
f 109/183/109 128/208/127 127/207/128 116/190/118
f 116/190/118 127/207/128 129/209/129 113/187/113
f 113/187/113 129/209/129 130/210/130 112/186/114
f 112/186/114 130/210/130 128/208/127 109/183/109
f 128/208/127 123/203/123 124/204/126 127/207/128
f 127/207/128 124/204/126 125/205/125 129/209/129
f 129/209/129 125/205/125 126/206/124 130/210/130
f 130/210/130 126/206/124 123/203/123 128/208/127
s 15
usemtl initialShadingGroup
f 131/211/131 134/214/132 133/213/133 132/212/134
f 134/214/132 136/216/135 135/215/136 133/213/133
f 136/216/135 138/218/137 137/217/138 135/215/136
f 138/218/137 140/220/139 139/219/140 137/217/138
f 140/220/139 142/222/141 141/221/142 139/219/140
f 142/222/141 144/224/143 143/223/144 141/221/142
f 144/224/143 146/226/145 145/225/146 143/223/144
f 146/226/145 148/228/147 147/227/148 145/225/146
f 148/228/147 150/230/149 149/229/150 147/227/148
f 150/230/149 131/232/131 132/231/134 149/229/150
f 145/233/146 139/236/140 141/235/142 143/234/144
f 147/237/148 137/238/138 139/236/140 145/233/146
f 149/239/150 135/240/136 137/238/138 147/237/148
f 132/212/134 133/213/133 135/240/136 149/239/150
f 144/241/143 142/244/141 140/243/139 146/242/145
f 146/242/145 140/243/139 138/246/137 148/245/147
f 148/245/147 138/246/137 136/248/135 150/247/149
f 150/247/149 136/248/135 134/214/132 131/211/131
