# This file uses meters as units for non-parametric coordinates.

mtllib mobster.mtl
g default
v 526.495667 422.124756 382.512848
v 571.837219 422.124756 337.171173
v 526.549927 482.746765 382.330475
v 570.837524 488.417297 336.306732
v 480.799927 477.703247 337.684845
v 525.087585 483.373840 291.660980
v 481.153931 422.124756 337.171173
v 526.495605 422.124756 291.829376
v 526.692261 485.998535 416.914703
v 591.281067 494.390137 336.018341
v 524.115295 487.103638 257.138336
v 454.342529 478.095154 338.114288
v 526.007019 487.399841 383.035980
v 570.943604 493.153503 336.337799
v 524.523193 488.036194 291.037750
v 479.586548 482.282471 337.736115
v 523.720337 506.638184 383.205902
v 567.844666 519.225891 336.568146
v 522.236511 507.274475 291.207733
v 476.487610 508.354858 337.966339
v 526.242065 391.952209 346.927460
v 548.551331 391.952209 324.618256
v 526.242065 423.502197 346.927460
v 548.551331 423.502197 324.618256
v 503.932800 423.502197 324.618256
v 526.242065 423.502197 302.309052
v 503.932800 391.952209 324.618256
v 526.242065 391.952209 302.309052
v 766.604980 156.880646 296.350922
v 766.604980 156.880646 342.033112
v 740.252869 203.190521 293.794159
v 740.252869 203.190521 344.589874
v 760.182495 215.741058 293.794159
v 760.182495 215.741058 344.589874
v 777.092407 162.531677 296.350922
v 777.092407 162.531677 342.033112
v 761.686279 178.587738 293.794159
v 761.686279 178.587738 344.589874
v 778.634705 185.181793 344.589874
v 778.634705 185.181793 293.794159
v 717.639221 223.259735 298.436127
v 717.639221 223.259735 340.201813
v 737.568970 235.810272 340.201813
v 737.568970 235.810272 298.436127
v 740.889221 205.437485 352.003754
v 756.258362 215.116074 352.003754
v 744.757446 217.852036 360.592133
v 731.931458 209.775070 360.592133
v 757.734985 182.718353 361.315399
v 765.667053 187.713501 361.315399
v 761.651062 187.446457 370.547516
v 753.719055 182.451309 370.547516
v 721.203735 207.468048 341.380402
v 756.656555 225.317841 341.380402
v 585.439941 388.236938 351.876007
v 623.543335 421.232483 351.876007
v 585.439941 388.236938 286.719269
v 623.543335 421.232483 286.719269
v 721.203735 207.468048 301.687531
v 756.656555 225.317841 301.687531
v 586.358582 220.156906 359.492950
v 619.198792 417.737854 359.492950
v 619.198792 417.737854 279.937103
v 586.358582 220.156906 279.937103
v 638.052429 423.171143 319.279694
v 601.190674 220.156906 319.279694
v 586.358582 171.044495 279.937103
v 601.190674 171.044495 319.279694
v 586.358582 171.044495 359.492950
v 525.470825 220.156906 380.304108
v 525.470825 171.044495 380.304108
v 525.470825 171.044495 319.279694
v 525.470825 171.044495 279.937103
v 525.470825 220.156906 279.937103
v 525.470825 407.156616 279.937103
v 525.470825 412.589905 319.279694
v 525.470825 407.156616 380.304108
v 557.255493 -34.329239 319.279694
v 557.255493 -34.329239 279.937103
v 618.143250 -34.329239 279.937103
v 632.975342 -34.329239 319.279694
v 557.255493 -34.329239 359.492950
v 618.143250 -34.329239 359.492950
v 553.905945 -47.175468 406.017853
v 625.435974 -47.175468 406.017853
v 553.905945 -36.014709 406.017853
v 625.435974 -36.014709 406.017853
v 553.905945 -36.014709 292.922638
v 625.435974 -36.014709 292.922638
v 553.905945 -47.175468 292.922638
v 625.435974 -47.175468 292.922638
v 589.670959 -47.175468 451.354401
v 589.670959 -47.175468 277.478973
v 589.670959 -36.014709 277.478973
v 589.670959 -36.014709 451.354401
v 589.670959 3.345467 398.868561
v 589.670959 16.723171 292.922638
v 289.255341 178.587738 293.794159
v 289.255341 178.587738 344.589874
v 310.688782 203.190521 344.589874
v 310.688782 203.190521 293.794159
v 333.302429 223.259735 298.436127
v 333.302429 223.259735 340.201813
v 313.372681 235.810272 340.201813
v 313.372681 235.810272 298.436127
v 290.759094 215.741058 293.794159
v 290.759094 215.741058 344.589874
v 272.306946 185.181793 344.589874
v 272.306946 185.181793 293.794159
v 273.849213 162.531677 296.350922
v 273.849213 162.531677 342.033112
v 284.336670 156.880646 342.033112
v 284.336670 156.880646 296.350922
v 293.206665 182.718353 361.315399
v 285.274597 187.713501 361.315399
v 289.290588 187.446457 370.547516
v 297.222565 182.451309 370.547516
v 294.683289 215.116074 352.003754
v 310.052399 205.437485 352.003754
v 306.184174 217.852036 360.592133
v 319.010162 209.775070 360.592133
v 329.737854 207.468048 341.380402
v 294.285034 225.317841 341.380402
v 427.398254 421.232483 351.876007
v 465.501709 388.236938 351.876007
v 427.398254 421.232483 286.719269
v 465.501709 388.236938 286.719269
v 294.285034 225.317841 301.687531
v 329.737854 207.468048 301.687531
v 464.583008 220.156906 359.492950
v 431.742798 417.737854 359.492950
v 412.889221 423.171143 319.279694
v 431.742798 417.737854 279.937103
v 464.583008 220.156906 279.937103
v 493.686157 -34.329239 319.279694
v 493.686157 -34.329239 279.937103
v 432.798340 -34.329239 279.937103
v 417.966248 -34.329239 319.279694
v 449.750916 220.156906 319.279694
v 493.686157 -34.329239 359.492950
v 432.798340 -34.329239 359.492950
v 464.583008 171.044495 279.937103
v 449.750916 171.044495 319.279694
v 464.583008 171.044495 359.492950
v 461.270630 -36.014709 451.354401
v 461.270630 -47.175468 451.354401
v 425.505676 -47.175468 406.017853
v 425.505676 -36.014709 406.017853
v 461.270630 -36.014709 277.478973
v 461.270630 16.723171 292.922638
v 425.505676 -36.014709 292.922638
v 461.270630 -47.175468 277.478973
v 425.505676 -47.175468 292.922638
v 497.035645 -47.175468 292.922638
v 497.035645 -47.175468 406.017853
v 497.035645 -36.014709 406.017853
v 497.035645 -36.014709 292.922638
v 461.270630 3.345467 398.868561
vt 0.375000 0.000000
vt 0.625000 0.000000
vt 0.375000 0.250000
vt 0.625000 0.250000
vt 0.375000 0.500000
vt 0.625000 0.500000
vt 0.375000 0.750000
vt 0.625000 0.750000
vt 0.375000 1.000000
vt 0.625000 1.000000
vt 0.875000 0.000000
vt 0.875000 0.250000
vt 0.125000 0.000000
vt 0.125000 0.250000
vt 0.375000 0.250000
vt 0.625000 0.250000
vt 0.625000 0.500000
vt 0.375000 0.500000
vt 0.375000 0.250000
vt 0.625000 0.250000
vt 0.625000 0.500000
vt 0.375000 0.500000
vt 0.375000 0.250000
vt 0.625000 0.250000
vt 0.625000 0.500000
vt 0.375000 0.500000
vt 0.375000 0.000000
vt 0.625000 0.000000
vt 0.625000 0.250000
vt 0.375000 0.250000
vt 0.625000 0.500000
vt 0.375000 0.500000
vt 0.625000 0.750000
vt 0.375000 0.750000
vt 0.625000 1.000000
vt 0.375000 1.000000
vt 0.875000 0.000000
vt 0.875000 0.250000
vt 0.125000 0.000000
vt 0.125000 0.250000
vt 0.459693 0.223589
vt 0.538753 0.223589
vt 0.538753 0.268594
vt 0.459693 0.268594
vt 0.459693 0.268594
vt 0.538753 0.268594
vt 0.538753 0.347654
vt 0.459693 0.347654
vt 0.459693 0.347654
vt 0.538753 0.347654
vt 0.538753 0.392660
vt 0.459693 0.392660
vt 0.459693 0.426714
vt 0.538753 0.426714
vt 0.538753 0.347654
vt 0.459693 0.347654
vt 0.617813 0.223589
vt 0.617813 0.268594
vt 0.380633 0.223589
vt 0.380633 0.268594
vt 0.617813 0.189534
vt 0.380633 0.189534
vt 0.538753 0.268594
vt 0.538753 0.347654
vt 0.538753 0.347654
vt 0.538753 0.268594
vt 0.538753 0.347654
vt 0.538753 0.268594
vt 0.538753 0.347654
vt 0.538753 0.268594
vt 0.375000 0.000000
vt 0.625000 0.000000
vt 0.625000 0.250000
vt 0.375000 0.250000
vt 0.625000 0.500000
vt 0.375000 0.500000
vt 0.625000 0.750000
vt 0.375000 0.750000
vt 0.625000 1.000000
vt 0.375000 1.000000
vt 0.875000 0.000000
vt 0.875000 0.250000
vt 0.125000 0.000000
vt 0.125000 0.250000
vt 0.500000 0.250000
vt 0.500000 0.000000
vt 0.625000 0.000000
vt 0.625000 0.250000
vt 0.500000 0.500000
vt 0.500000 0.376368
vt 0.625000 0.376368
vt 0.625000 0.500000
vt 0.500000 0.750000
vt 0.625000 0.750000
vt 0.500000 0.873632
vt 0.500000 0.750000
vt 0.625000 0.750000
vt 0.625000 0.873632
vt 0.751368 0.250000
vt 0.751368 0.000000
vt 0.875000 0.000000
vt 0.875000 0.250000
vt 0.500000 1.000000
vt 0.625000 1.000000
vt 0.500000 0.750000
vt 0.625000 0.750000
vt 0.625000 0.873632
vt 0.625000 0.873632
vt 0.625000 1.000000
vt 0.625000 1.000000
vt 0.500000 1.000000
vt 0.500000 1.000000
vt 0.500000 0.873632
vt 0.500000 0.250000
vt 0.500000 0.000000
vt 0.625000 0.000000
vt 0.625000 0.250000
vt 0.500000 0.500000
vt 0.500000 0.446487
vt 0.625000 0.500000
vt 0.500000 0.750000
vt 0.625000 0.750000
vt 0.500000 1.000000
vt 0.625000 1.000000
vt 0.875000 0.000000
vt 0.875000 0.250000
vt 0.125000 0.000000
vt 0.375000 0.000000
vt 0.375000 0.250000
vt 0.125000 0.250000
vt 0.375000 0.750000
vt 0.375000 1.000000
vt 0.375000 0.500000
vt 0.500000 0.315073
vt 0.459693 0.223589
vt 0.459693 0.268594
vt 0.538753 0.268594
vt 0.538753 0.223589
vt 0.459693 0.268594
vt 0.459693 0.347654
vt 0.538753 0.347654
vt 0.538753 0.268594
vt 0.459693 0.347654
vt 0.459693 0.392660
vt 0.538753 0.392660
vt 0.538753 0.347654
vt 0.459693 0.426714
vt 0.459693 0.347654
vt 0.538753 0.347654
vt 0.538753 0.426714
vt 0.617813 0.268594
vt 0.617813 0.223589
vt 0.380633 0.223589
vt 0.380633 0.268594
vt 0.617813 0.189534
vt 0.380633 0.189534
vt 0.538753 0.268594
vt 0.538753 0.268594
vt 0.538753 0.347654
vt 0.538753 0.347654
vt 0.538753 0.268594
vt 0.538753 0.347654
vt 0.538753 0.347654
vt 0.538753 0.268594
vt 0.375000 0.000000
vt 0.375000 0.250000
vt 0.625000 0.250000
vt 0.625000 0.000000
vt 0.375000 0.500000
vt 0.625000 0.500000
vt 0.375000 0.750000
vt 0.625000 0.750000
vt 0.375000 1.000000
vt 0.625000 1.000000
vt 0.875000 0.250000
vt 0.875000 0.000000
vt 0.125000 0.000000
vt 0.125000 0.250000
vt 0.500000 0.250000
vt 0.625000 0.250000
vt 0.625000 0.000000
vt 0.500000 0.000000
vt 0.500000 0.500000
vt 0.625000 0.500000
vt 0.625000 0.376368
vt 0.500000 0.376368
vt 0.500000 0.750000
vt 0.625000 0.750000
vt 0.500000 0.873632
vt 0.625000 0.873632
vt 0.625000 0.750000
vt 0.500000 0.750000
vt 0.751368 0.250000
vt 0.875000 0.250000
vt 0.875000 0.000000
vt 0.751368 0.000000
vt 0.500000 1.000000
vt 0.625000 1.000000
vt 0.500000 0.750000
vt 0.625000 0.750000
vt 0.625000 0.873632
vt 0.625000 0.873632
vt 0.625000 1.000000
vt 0.625000 1.000000
vt 0.500000 1.000000
vt 0.500000 1.000000
vt 0.500000 0.873632
vt 0.500000 0.250000
vt 0.625000 0.250000
vt 0.625000 0.000000
vt 0.500000 0.000000
vt 0.500000 0.500000
vt 0.625000 0.500000
vt 0.500000 0.446487
vt 0.500000 0.750000
vt 0.625000 0.750000
vt 0.500000 1.000000
vt 0.625000 1.000000
vt 0.875000 0.250000
vt 0.875000 0.000000
vt 0.125000 0.000000
vt 0.125000 0.250000
vt 0.375000 0.250000
vt 0.375000 0.000000
vt 0.375000 0.750000
vt 0.375000 1.000000
vt 0.375000 0.500000
vt 0.500000 0.315073
vn 0.041084 -0.596483 0.801574
vn 0.817467 -0.575961 -0.004023
vn 0.821881 -0.569305 -0.020092
vn 0.149504 -0.635518 0.757473
vn -0.069674 0.679458 0.730399
vn 0.518797 0.854894 -0.002454
vn -0.093039 0.689477 -0.718307
vn -0.706721 -0.707492 -0.000647
vn 0.128538 -0.634413 -0.762233
vn 0.037544 -0.595836 -0.802229
vn -0.786610 -0.617450 0.000664
vn 0.998882 -0.044339 -0.016418
vn 0.006678 -0.166266 0.986058
vn -0.025162 -0.152624 -0.987964
vn -0.963396 -0.267731 0.013685
vn 0.328012 0.944673 0.001244
vn -0.100888 0.901864 0.420075
vn -0.114180 0.907565 -0.404090
vn -0.500496 0.865625 0.014060
vn -0.704719 0.709300 0.016272
vn 0.000000 -0.577352 0.816495
vn 0.816496 -0.577352 0.000000
vn 0.816496 0.577352 0.000000
vn 0.000000 0.577352 0.816495
vn 0.000000 0.577352 -0.816495
vn -0.816496 0.577352 0.000000
vn 0.000000 -0.577352 -0.816495
vn -0.816496 -0.577352 0.000000
vn -0.861512 -0.507737 0.000000
vn -0.861512 -0.507737 0.000000
vn -0.754002 -0.656873 0.000000
vn -0.754002 -0.656873 0.000000
vn -0.532880 0.846191 0.000000
vn -0.517532 0.821820 0.238270
vn -0.516758 0.820591 0.244113
vn -0.532880 0.846191 0.000000
vn 0.856048 0.516897 0.000000
vn 0.856048 0.516897 0.000000
vn 0.947281 0.320403 0.000000
vn 0.947281 0.320403 0.000000
vn 0.474355 -0.880334 0.000000
vn 0.474355 -0.880334 0.000000
vn 0.474355 -0.880334 0.000000
vn 0.474355 -0.880334 0.000000
vn 0.521786 -0.828569 0.203007
vn 0.521786 -0.828569 0.203007
vn 0.521786 -0.828569 0.203007
vn 0.521786 -0.828569 0.203007
vn 0.521430 -0.828007 0.206190
vn 0.521430 -0.828008 0.206190
vn 0.620066 0.618641 0.482496
vn -0.389605 0.618678 0.682236
vn -0.511127 -0.535266 0.672487
vn 0.725466 0.341131 0.597769
vn 0.525534 0.579447 0.622941
vn -0.683152 -0.297969 0.666722
vn 0.529349 0.569449 -0.628902
vn -0.674173 -0.305634 -0.672368
vn 0.733158 0.333871 -0.592460
vn -0.506468 -0.546621 -0.666855
vn 0.000000 0.240759 0.970585
vn 0.000000 -0.019228 0.999815
vn 0.547197 -0.062318 0.834681
vn 0.555957 0.259062 0.789809
vn -0.000000 0.239482 -0.970901
vn -0.000000 1.000000 -0.000143
vn 0.954899 0.296931 0.000708
vn 0.442285 0.196602 -0.875061
vn 0.000000 0.000000 -1.000000
vn 0.379101 -0.052577 -0.923861
vn -0.912304 -0.409514 0.000000
vn -0.492437 -0.239988 -0.836607
vn 0.497503 -0.119682 -0.859166
vn 0.993862 -0.110624 0.000126
vn 0.990234 -0.139419 -0.000121
vn -0.514131 -0.282704 0.809783
vn 0.582170 -0.128869 0.802789
vn 0.000000 -0.087280 -0.996184
vn 0.430266 0.053373 -0.901123
vn 0.992193 0.124714 -0.000095
vn 0.547557 0.037194 0.835942
vn 0.000000 -0.125058 0.992150
vn -0.000000 -1.000000 0.000000
vn -0.000000 0.554926 0.831900
vn 0.000000 -0.983677 0.179942
vn 0.213496 -0.975754 0.048195
vn 0.844144 0.517251 0.140973
vn 0.000000 0.197224 -0.980359
vn 0.000000 0.999003 -0.044653
vn 0.849662 0.518073 -0.098357
vn 0.000000 -0.994528 -0.104467
vn 0.216289 -0.974473 -0.060181
vn -0.216289 -0.974473 -0.060181
vn -0.213496 -0.975754 0.048195
vn -0.844143 0.517251 0.140973
vn -0.849662 0.518074 -0.098357
vn 0.000000 0.990125 0.140188
vn 0.861512 -0.507737 0.000000
vn 0.754002 -0.656873 0.000000
vn 0.754002 -0.656873 0.000000
vn 0.861512 -0.507737 0.000000
vn 0.532880 0.846191 0.000000
vn 0.532880 0.846191 0.000000
vn 0.516758 0.820591 0.244113
vn 0.517532 0.821820 0.238270
vn -0.856048 0.516897 0.000000
vn -0.947281 0.320403 0.000000
vn -0.947281 0.320403 0.000000
vn -0.856048 0.516897 0.000000
vn -0.474355 -0.880334 0.000000
vn -0.474355 -0.880334 0.000000
vn -0.474355 -0.880334 0.000000
vn -0.474355 -0.880334 0.000000
vn -0.521786 -0.828569 0.203007
vn -0.521786 -0.828569 0.203007
vn -0.521786 -0.828569 0.203007
vn -0.521786 -0.828569 0.203007
vn -0.521430 -0.828008 0.206190
vn -0.521430 -0.828007 0.206190
vn -0.620066 0.618641 0.482496
vn 0.389605 0.618678 0.682236
vn 0.511127 -0.535266 0.672487
vn 0.683152 -0.297969 0.666722
vn -0.525534 0.579447 0.622941
vn -0.725466 0.341131 0.597769
vn 0.674173 -0.305634 -0.672368
vn -0.529349 0.569449 -0.628902
vn 0.506468 -0.546621 -0.666855
vn -0.733158 0.333871 -0.592461
vn -0.555957 0.259062 0.789810
vn -0.547197 -0.062318 0.834681
vn -0.442284 0.196602 -0.875061
vn -0.954899 0.296932 0.000708
vn -0.379101 -0.052577 -0.923861
vn 0.912304 -0.409514 0.000000
vn -0.993862 -0.110624 0.000126
vn -0.497503 -0.119682 -0.859166
vn 0.492437 -0.239988 -0.836607
vn -0.990234 -0.139419 -0.000121
vn 0.514130 -0.282704 0.809783
vn -0.582170 -0.128869 0.802790
vn -0.430266 0.053373 -0.901123
vn -0.992193 0.124714 -0.000095
vn -0.547557 0.037194 0.835942
vn 0.000000 0.554926 0.831900
vn -0.844144 0.517250 0.140972
vn -0.213496 -0.975754 0.048195
vn 0.000000 -0.983677 0.179942
vn 0.000000 0.197224 -0.980359
vn -0.849663 0.518073 -0.098357
vn 0.000000 0.999003 -0.044653
vn 0.000000 -0.994528 -0.104467
vn -0.216289 -0.974473 -0.060181
vn 0.216289 -0.974473 -0.060181
vn 0.849662 0.518074 -0.098357
vn 0.844143 0.517251 0.140973
vn 0.213496 -0.975754 0.048195
vn 0.000000 0.990125 0.140188
s 1
g pCube57
usemtl initialShadingGroup
f 1/1/1 2/2/2 4/4/3 3/3/4
f 17/23/5 18/24/6 19/25/7
f 5/5/8 6/6/9 8/8/10 7/7/11
f 7/7/11 8/8/10 2/10/2 1/9/1
f 2/2/2 8/11/10 6/12/9 4/4/3
f 7/13/11 1/1/1 3/3/4 5/14/8
f 3/3/4 4/4/3 10/16/12 9/15/13
f 4/4/3 6/6/9 11/17/14 10/16/12
f 6/6/9 5/5/8 12/18/15 11/17/14
f 5/5/8 3/3/4 9/15/13 12/18/15
f 9/15/13 10/16/12 14/20/16 13/19/17
f 10/16/12 11/17/14 15/21/18 14/20/16
f 11/17/14 12/18/15 16/22/19 15/21/18
f 12/18/15 9/15/13 13/19/17 16/22/19
f 13/19/17 14/20/16 18/24/6 17/23/5
f 14/20/16 15/21/18 19/25/7 18/24/6
f 15/21/18 16/22/19 20/26/20 19/25/7
f 16/22/19 13/19/17 17/23/5 20/26/20
f 17/23/5 19/25/7 20/26/20
s 4
f 21/27/21 22/28/22 24/29/23 23/30/24
f 23/30/24 24/29/23 26/31/25 25/32/26
f 25/32/26 26/31/25 28/33/27 27/34/28
f 27/34/28 28/33/27 22/35/22 21/36/21
f 22/28/22 28/37/27 26/38/25 24/29/23
f 27/39/28 21/27/21 23/30/24 25/40/26
s 5
usemtl hand:initialShadingGroup
f 37/41/29 38/42/30 32/43/31 31/44/32
f 41/45/33 42/46/34 43/47/35 44/48/36
f 33/49/37 34/50/38 39/51/39 40/52/40
f 35/53/41 36/54/42 30/55/43 29/56/44
f 38/42/30 39/57/39 34/58/38 32/43/31
f 40/59/40 37/41/29 31/44/32 33/60/37
f 29/56/44 30/55/43 38/42/30 37/41/29
f 30/55/43 36/61/42 39/57/39 38/42/30
f 40/52/40 39/51/39 36/54/42 35/53/41
f 35/62/41 29/56/44 37/41/29 40/59/40
f 31/44/32 32/43/31 42/46/34 41/45/33
f 49/63/45 50/64/46 51/65/47 52/66/48
f 34/50/38 33/49/37 44/48/36 43/47/35
f 33/49/37 31/44/32 41/45/33 44/48/36
f 32/43/31 34/50/38 46/67/49 45/68/50
f 34/50/38 43/47/35 47/69/51 46/67/49
f 43/47/35 42/46/34 48/70/52 47/69/51
f 42/46/34 32/43/31 45/68/50 48/70/52
f 45/68/50 46/67/49 50/64/46 49/63/45
f 46/67/49 47/69/51 51/65/47 50/64/46
f 47/69/51 48/70/52 52/66/48 51/65/47
f 48/70/52 45/68/50 49/63/45 52/66/48
s 7
usemtl initialShadingGroup
f 53/71/53 54/72/54 56/73/55 55/74/56
f 55/74/56 56/73/55 58/75/57 57/76/58
f 57/76/58 58/75/57 60/77/59 59/78/60
f 59/78/60 60/77/59 54/79/54 53/80/53
f 54/72/54 60/81/59 58/82/57 56/73/55
f 59/83/60 53/71/53 55/74/56 57/84/58
s 8
f 77/85/61 70/86/62 61/87/63 62/88/64
f 75/89/65 76/90/66 65/91/67 63/92/68
f 74/93/69 75/89/65 63/92/68 64/94/70
f 78/95/71 79/96/72 80/97/73 81/98/74
f 65/99/67 66/100/75 64/101/70 63/102/68
f 76/90/66 77/85/61 62/88/64 65/91/67
f 61/87/63 66/100/75 65/99/67 62/88/64
f 82/103/76 78/95/71 81/98/74 83/104/77
f 73/105/78 74/93/69 64/94/70 67/106/79
f 64/94/70 66/107/75 68/108/80 67/106/79
f 66/107/75 61/109/63 69/110/81 68/108/80
f 61/109/63 70/111/62 71/112/82 69/110/81
f 72/113/83 73/105/78 79/96/72 78/95/71
f 73/105/78 67/106/79 80/97/73 79/96/72
f 67/106/79 68/108/80 81/98/74 80/97/73
f 71/112/82 72/113/83 78/95/71 82/103/76
f 68/108/80 69/110/81 83/104/77 81/98/74
f 69/110/81 71/112/82 82/103/76 83/104/77
s 11
f 95/114/84 92/115/85 85/116/86 87/117/87
f 94/118/88 97/119/89 89/120/90
f 93/121/91 94/118/88 89/120/90 91/122/92
f 92/123/85 93/121/91 91/122/92 85/124/86
f 85/116/86 91/125/92 89/126/90 87/117/87
f 90/127/93 84/128/94 86/129/95 88/130/96
f 90/131/93 93/121/91 92/123/85 84/132/94
f 88/133/96 94/118/88 93/121/91 90/131/93
f 88/133/96 97/119/89 94/118/88
f 84/128/94 92/115/85 95/114/84 86/129/95
f 86/129/95 95/114/84 96/134/97
f 87/117/87 96/134/97 95/114/84
f 86/129/95 96/134/97 97/119/89 88/133/96
f 89/120/90 97/119/89 96/134/97 87/117/87
s 13
usemtl hand:initialShadingGroup
f 98/135/98 101/136/99 100/137/100 99/138/101
f 102/139/102 105/140/103 104/141/104 103/142/105
f 106/143/106 109/144/107 108/145/108 107/146/109
f 110/147/110 113/148/111 112/149/112 111/150/113
f 99/138/101 100/137/100 107/151/109 108/152/108
f 109/153/107 106/154/106 101/136/99 98/135/98
f 113/148/111 98/135/98 99/138/101 112/149/112
f 112/149/112 99/138/101 108/152/108 111/155/113
f 109/144/107 110/147/110 111/150/113 108/145/108
f 110/156/110 109/153/107 98/135/98 113/148/111
f 101/136/99 102/139/102 103/142/105 100/137/100
f 114/157/114 117/158/115 116/159/116 115/160/117
f 107/146/109 104/141/104 105/140/103 106/143/106
f 106/143/106 105/140/103 102/139/102 101/136/99
f 100/137/100 119/161/118 118/162/119 107/146/109
f 107/146/109 118/162/119 120/163/120 104/141/104
f 104/141/104 120/163/120 121/164/121 103/142/105
f 103/142/105 121/164/121 119/161/118 100/137/100
f 119/161/118 114/157/114 115/160/117 118/162/119
f 118/162/119 115/160/117 116/159/116 120/163/120
f 120/163/120 116/159/116 117/158/115 121/164/121
f 121/164/121 117/158/115 114/157/114 119/161/118
s 17
usemtl initialShadingGroup
f 122/165/122 125/166/123 124/167/124 123/168/125
f 125/166/123 127/169/126 126/170/127 124/167/124
f 127/169/126 129/171/128 128/172/129 126/170/127
f 129/171/128 122/173/122 123/174/125 128/172/129
f 123/168/125 124/167/124 126/175/127 128/176/129
f 129/177/128 127/178/126 125/166/123 122/165/122
s 8
f 77/179/61 131/180/130 130/181/131 70/182/62
f 75/183/65 133/184/132 132/185/133 76/186/66
f 74/187/69 134/188/134 133/184/132 75/183/65
f 135/189/135 138/190/136 137/191/137 136/192/138
f 132/193/133 133/194/132 134/195/134 139/196/139
f 76/186/66 132/185/133 131/180/130 77/179/61
f 130/181/131 131/180/130 132/193/133 139/196/139
f 140/197/140 141/198/141 138/190/136 135/189/135
f 73/199/78 142/200/142 134/188/134 74/187/69
f 134/188/134 142/200/142 143/201/143 139/202/139
f 139/202/139 143/201/143 144/203/144 130/204/131
f 130/204/131 144/203/144 71/205/82 70/206/62
f 72/207/83 135/189/135 136/192/138 73/199/78
f 73/199/78 136/192/138 137/191/137 142/200/142
f 142/200/142 137/191/137 138/190/136 143/201/143
f 71/205/82 140/197/140 135/189/135 72/207/83
f 143/201/143 138/190/136 141/198/141 144/203/144
f 144/203/144 141/198/141 140/197/140 71/205/82
s 19
f 145/208/145 148/209/146 147/210/147 146/211/148
f 149/212/149 151/213/150 150/214/151
f 152/215/152 153/216/153 151/213/150 149/212/149
f 146/217/148 147/218/147 153/216/153 152/215/152
f 147/210/147 148/209/146 151/219/150 153/220/153
f 154/221/154 157/222/155 156/223/156 155/224/157
f 154/225/154 155/226/157 146/217/148 152/215/152
f 157/227/155 154/225/154 152/215/152 149/212/149
f 157/227/155 149/212/149 150/214/151
f 155/224/157 156/223/156 145/208/145 146/211/148
f 156/223/156 158/228/158 145/208/145
f 148/209/146 145/208/145 158/228/158
f 156/223/156 157/227/155 150/214/151 158/228/158
f 151/213/150 148/209/146 158/228/158 150/214/151
