# This file uses meters as units for non-parametric coordinates.

mtllib ghost.mtl
g default
v 102.655997 283.133696 74.093909
v 161.434554 283.133665 59.943234
v 197.761676 283.133665 22.896278
v 197.761661 283.133665 -22.896278
v 161.434539 283.133665 -59.943234
v 102.655997 283.133696 -74.093909
v 102.655997 314.035429 70.467489
v 158.557723 314.035398 57.009404
v 193.106876 314.035398 21.775644
v 193.106860 314.035398 -21.775667
v 158.557708 314.035398 -57.009393
v 102.655997 314.035429 -70.467489
v 102.655997 341.912260 59.943234
v 150.208846 341.912260 48.495106
v 179.598117 341.912229 18.523477
v 179.598102 341.912229 -18.523477
v 150.208839 341.912260 -48.495106
v 102.655997 341.912260 -59.943234
v 102.655997 364.035429 43.551311
v 137.205169 364.035429 35.233745
v 158.557723 364.035398 13.458102
v 158.557716 364.035398 -13.458102
v 137.205161 364.035429 -35.233745
v 102.655997 364.035429 -43.551311
v 102.655997 378.239378 22.896278
v 120.819587 378.239378 18.523477
v 132.045280 378.239378 7.075349
v 132.045280 378.239378 -7.075349
v 120.819587 378.239378 -18.523477
v 102.655997 378.239378 -22.896278
v 102.655997 383.133726 -0.000000
v 102.656001 -43.313265 -85.220488
v 170.261218 -43.313295 -68.944837
v 212.043552 -43.313295 -26.334587
v 212.043552 -43.313295 26.334584
v 170.261233 -43.313295 68.944837
v 102.656001 -43.313265 85.220511
v 102.655997 200.658537 -74.093903
v 161.434539 200.658506 -59.943234
v 244.988132 176.097792 -15.266367
v 244.988162 176.097776 15.266367
v 161.434547 200.658506 59.943234
v 102.655997 200.658537 74.093909
v 102.655997 160.061857 74.093909
v 161.434547 160.061827 59.943234
v 212.160556 152.213880 22.896278
v 212.160556 152.213896 -22.896278
v 161.434539 160.061827 -59.943234
v 102.655997 160.061857 -74.093903
v 102.655997 220.582395 -74.093909
v 161.434547 220.582365 -59.943234
v 211.214831 230.811155 -22.896278
v 211.214847 230.811155 22.896278
v 161.434554 220.582365 59.943234
v 102.655997 220.582395 74.093909
v 102.655997 138.703825 74.093909
v 161.434547 138.703794 59.943223
v 197.761661 138.703764 22.896278
v 197.761661 138.703764 -22.896278
v 161.434539 138.703794 -59.943223
v 102.655997 138.703825 -74.093903
v 43.877437 283.133726 59.943234
v 46.754268 314.035459 57.009404
v 7.550326 283.133757 22.896278
v 12.205127 314.035490 21.775644
v 7.550342 283.133757 -22.896278
v 12.205127 314.035490 -21.775667
v 43.877452 283.133726 -59.943234
v 46.754283 314.035459 -57.009393
v 55.103145 341.912290 48.495106
v 25.713885 341.912321 18.523477
v 25.713885 341.912321 -18.523477
v 55.103152 341.912290 -48.495106
v 68.106822 364.035459 35.233745
v 46.754268 364.035459 13.458102
v 46.754275 364.035459 -13.458102
v 68.106830 364.035459 -35.233745
v 84.492408 378.239408 18.523477
v 73.266709 378.239408 7.075349
v 73.266709 378.239408 -7.075349
v 84.492408 378.239408 -18.523477
v 43.877460 200.658567 -59.943234
v 43.877463 160.061888 -59.943234
v -39.676114 176.097944 -15.266367
v -6.848554 152.214018 -22.896278
v -39.676144 176.097929 15.266367
v -6.848554 152.214003 22.896278
v 43.877452 200.658567 59.943234
v 43.877456 160.061888 59.943234
v 43.877452 220.582426 -59.943234
v -5.902829 230.811262 -22.896278
v -5.902844 230.811262 22.896278
v 43.877444 220.582426 59.943234
v 43.877456 138.703855 59.943223
v 7.550342 138.703871 22.896278
v 7.550342 138.703871 -22.896278
v 43.877463 138.703855 -59.943223
v 35.050769 -43.313204 68.944837
v -6.731549 -43.313204 26.334584
v -6.731549 -43.313204 -26.334587
v 35.050784 -43.313204 -68.944837
vt 0.400000 0.500000
vt 0.500000 0.500000
vt 0.600000 0.500000
vt 0.700000 0.500000
vt 0.800000 0.500000
vt 0.900000 0.500000
vt 0.400000 0.600000
vt 0.500000 0.600000
vt 0.600000 0.600000
vt 0.700000 0.600000
vt 0.800000 0.600000
vt 0.900000 0.600000
vt 0.400000 0.700000
vt 0.500000 0.700000
vt 0.600000 0.700000
vt 0.700000 0.700000
vt 0.800000 0.700000
vt 0.900000 0.700000
vt 0.400000 0.800000
vt 0.500000 0.800000
vt 0.600000 0.800000
vt 0.700000 0.800000
vt 0.800000 0.800000
vt 0.900000 0.800000
vt 0.400000 0.900000
vt 0.500000 0.900000
vt 0.600000 0.900000
vt 0.700000 0.900000
vt 0.800000 0.900000
vt 0.900000 0.900000
vt 0.450000 1.000000
vt 0.550000 1.000000
vt 0.650000 1.000000
vt 0.750000 1.000000
vt 0.850000 1.000000
vt 0.900000 0.500000
vt 0.800000 0.500000
vt 0.700000 0.500000
vt 0.600000 0.500000
vt 0.500000 0.500000
vt 0.400000 0.500000
vt 0.900000 0.500000
vt 0.800000 0.500000
vt 0.700000 0.500000
vt 0.600000 0.500000
vt 0.500000 0.500000
vt 0.400000 0.500000
vt 0.400000 0.500000
vt 0.500000 0.500000
vt 0.600000 0.500000
vt 0.700000 0.500000
vt 0.800000 0.500000
vt 0.900000 0.500000
vt 0.900000 0.500000
vt 0.800000 0.500000
vt 0.700000 0.500000
vt 0.600000 0.500000
vt 0.500000 0.500000
vt 0.400000 0.500000
vt 0.400000 0.500000
vt 0.500000 0.500000
vt 0.600000 0.500000
vt 0.700000 0.500000
vt 0.800000 0.500000
vt 0.900000 0.500000
vt 0.400000 0.500000
vt 0.500000 0.500000
vt 0.500000 0.600000
vt 0.400000 0.600000
vt 0.600000 0.500000
vt 0.600000 0.600000
vt 0.700000 0.500000
vt 0.700000 0.600000
vt 0.800000 0.500000
vt 0.800000 0.600000
vt 0.900000 0.500000
vt 0.900000 0.600000
vt 0.500000 0.700000
vt 0.400000 0.700000
vt 0.600000 0.700000
vt 0.700000 0.700000
vt 0.800000 0.700000
vt 0.900000 0.700000
vt 0.500000 0.800000
vt 0.400000 0.800000
vt 0.600000 0.800000
vt 0.700000 0.800000
vt 0.800000 0.800000
vt 0.900000 0.800000
vt 0.500000 0.900000
vt 0.400000 0.900000
vt 0.600000 0.900000
vt 0.700000 0.900000
vt 0.800000 0.900000
vt 0.900000 0.900000
vt 0.450000 1.000000
vt 0.550000 1.000000
vt 0.650000 1.000000
vt 0.750000 1.000000
vt 0.850000 1.000000
vt 0.900000 0.500000
vt 0.800000 0.500000
vt 0.800000 0.500000
vt 0.900000 0.500000
vt 0.700000 0.500000
vt 0.700000 0.500000
vt 0.600000 0.500000
vt 0.600000 0.500000
vt 0.500000 0.500000
vt 0.500000 0.500000
vt 0.400000 0.500000
vt 0.400000 0.500000
vt 0.900000 0.500000
vt 0.800000 0.500000
vt 0.700000 0.500000
vt 0.600000 0.500000
vt 0.500000 0.500000
vt 0.400000 0.500000
vt 0.400000 0.500000
vt 0.500000 0.500000
vt 0.600000 0.500000
vt 0.700000 0.500000
vt 0.800000 0.500000
vt 0.900000 0.500000
vt 0.400000 0.500000
vt 0.500000 0.500000
vt 0.600000 0.500000
vt 0.700000 0.500000
vt 0.800000 0.500000
vt 0.900000 0.500000
vn -0.000000 0.037337 0.999303
vn 0.448460 0.064876 0.891445
vn 0.460268 0.239008 0.855002
vn 0.000000 0.220583 0.975368
vn 0.871657 0.157613 0.464082
vn 0.878647 0.281987 0.385308
vn 0.871657 0.157613 -0.464082
vn 0.878647 0.281987 -0.385308
vn 0.448460 0.064876 -0.891445
vn 0.460268 0.239008 -0.855002
vn -0.000000 0.037337 -0.999303
vn 0.000000 0.220583 -0.975368
vn 0.416696 0.476647 0.774062
vn 0.000000 0.445904 0.895081
vn 0.768757 0.543474 0.337118
vn 0.768757 0.543474 -0.337118
vn 0.416696 0.476647 -0.774062
vn 0.000000 0.445904 -0.895081
vn 0.337808 0.701502 0.627519
vn 0.000000 0.670765 0.741670
vn 0.593445 0.761642 0.260239
vn 0.593445 0.761642 -0.260240
vn 0.337809 0.701502 -0.627519
vn 0.000000 0.670765 -0.741670
vn 0.225834 0.879209 0.419513
vn 0.000000 0.861349 0.508014
vn 0.378461 0.910617 0.165964
vn 0.378461 0.910617 -0.165964
vn 0.225834 0.879208 -0.419513
vn 0.000001 0.861349 -0.508014
vn 0.000001 1.000000 -0.000000
vn -0.000000 0.000000 -1.000000
vn 0.409896 0.016150 -0.911989
vn 0.388299 -0.090941 -0.917035
vn 0.000000 -0.000000 -1.000000
vn 0.883933 -0.008075 -0.467544
vn 0.625368 -0.406469 -0.666106
vn 0.883933 -0.008075 0.467543
vn 0.625368 -0.406469 0.666106
vn 0.409896 0.016150 0.911989
vn 0.388299 -0.090941 0.917035
vn -0.000000 0.000000 1.000000
vn 0.000000 -0.000000 1.000000
vn 0.000000 0.000000 -1.000000
vn 0.437397 0.064849 -0.896927
vn 0.809728 0.252361 -0.529768
vn 0.809728 0.252361 0.529768
vn 0.437397 0.064849 0.896927
vn 0.000000 -0.000000 1.000000
vn -0.000000 0.055117 0.998480
vn 0.468489 0.048928 0.882114
vn 0.908473 0.021682 0.417382
vn 0.908472 0.021682 -0.417382
vn 0.468489 0.048928 -0.882114
vn -0.000000 0.055116 -0.998480
vn 0.000000 0.061016 0.998137
vn 0.472960 0.066386 0.878579
vn 0.912936 0.079196 0.400344
vn 0.912936 0.079196 -0.400344
vn 0.472960 0.066386 -0.878579
vn 0.000000 0.061015 -0.998137
vn -0.460268 0.239008 0.855002
vn -0.448460 0.064876 0.891445
vn -0.878647 0.281987 0.385308
vn -0.871657 0.157613 0.464082
vn -0.878647 0.281987 -0.385308
vn -0.871657 0.157613 -0.464082
vn -0.460268 0.239008 -0.855002
vn -0.448460 0.064876 -0.891445
vn -0.416696 0.476647 0.774062
vn -0.768757 0.543474 0.337118
vn -0.768757 0.543475 -0.337118
vn -0.416696 0.476647 -0.774062
vn -0.337808 0.701502 0.627519
vn -0.593444 0.761642 0.260240
vn -0.593444 0.761643 -0.260240
vn -0.337808 0.701502 -0.627519
vn -0.225833 0.879209 0.419514
vn -0.378461 0.910617 0.165964
vn -0.378461 0.910617 -0.165964
vn -0.225833 0.879209 -0.419514
vn -0.388299 -0.090941 -0.917035
vn -0.409896 0.016150 -0.911989
vn -0.625368 -0.406469 -0.666106
vn -0.883933 -0.008074 -0.467544
vn -0.625368 -0.406469 0.666106
vn -0.883933 -0.008075 0.467543
vn -0.388299 -0.090941 0.917035
vn -0.409896 0.016150 0.911989
vn -0.437397 0.064849 -0.896927
vn -0.809728 0.252361 -0.529768
vn -0.809728 0.252361 0.529768
vn -0.437397 0.064849 0.896927
vn -0.468489 0.048928 0.882114
vn -0.908473 0.021682 0.417382
vn -0.908472 0.021682 -0.417382
vn -0.468489 0.048928 -0.882114
vn -0.472960 0.066386 0.878579
vn -0.912936 0.079196 0.400344
vn -0.912936 0.079196 -0.400345
vn -0.472960 0.066386 -0.878579
s 1
g pSphere1
usemtl initialShadingGroup
f 1/1/1 2/2/2 8/8/3 7/7/4
f 2/2/2 3/3/5 9/9/6 8/8/3
f 3/3/5 4/4/7 10/10/8 9/9/6
f 4/4/7 5/5/9 11/11/10 10/10/8
f 5/5/9 6/6/11 12/12/12 11/11/10
f 7/7/4 8/8/3 14/14/13 13/13/14
f 8/8/3 9/9/6 15/15/15 14/14/13
f 9/9/6 10/10/8 16/16/16 15/15/15
f 10/10/8 11/11/10 17/17/17 16/16/16
f 11/11/10 12/12/12 18/18/18 17/17/17
f 13/13/14 14/14/13 20/20/19 19/19/20
f 14/14/13 15/15/15 21/21/21 20/20/19
f 15/15/15 16/16/16 22/22/22 21/21/21
f 16/16/16 17/17/17 23/23/23 22/22/22
f 17/17/17 18/18/18 24/24/24 23/23/23
f 19/19/20 20/20/19 26/26/25 25/25/26
f 20/20/19 21/21/21 27/27/27 26/26/25
f 21/21/21 22/22/22 28/28/28 27/27/27
f 22/22/22 23/23/23 29/29/29 28/28/28
f 23/23/23 24/24/24 30/30/30 29/29/29
f 25/25/26 26/26/25 31/31/31
f 26/26/25 27/27/27 31/32/31
f 27/27/27 28/28/28 31/33/31
f 28/28/28 29/29/29 31/34/31
f 29/29/29 30/30/30 31/35/31
f 38/42/32 39/43/33 48/52/34 49/53/35
f 39/43/33 40/44/36 47/51/37 48/52/34
f 40/44/36 41/45/38 46/50/39 47/51/37
f 41/45/38 42/46/40 45/49/41 46/50/39
f 42/46/40 43/47/42 44/48/43 45/49/41
f 50/54/44 51/55/45 39/43/33 38/42/32
f 51/55/45 52/56/46 40/44/36 39/43/33
f 52/56/46 53/57/47 41/45/38 40/44/36
f 53/57/47 54/58/48 42/46/40 41/45/38
f 54/58/48 55/59/49 43/47/42 42/46/40
f 45/49/41 44/48/43 56/60/50 57/61/51
f 46/50/39 45/49/41 57/61/51 58/62/52
f 47/51/37 46/50/39 58/62/52 59/63/53
f 48/52/34 47/51/37 59/63/53 60/64/54
f 49/53/35 48/52/34 60/64/54 61/65/55
f 6/6/11 5/5/9 51/55/45 50/54/44
f 5/5/9 4/4/7 52/56/46 51/55/45
f 4/4/7 3/3/5 53/57/47 52/56/46
f 3/3/5 2/2/2 54/58/48 53/57/47
f 2/2/2 1/1/1 55/59/49 54/58/48
f 57/61/51 56/60/50 37/41/56 36/40/57
f 58/62/52 57/61/51 36/40/57 35/39/58
f 59/63/53 58/62/52 35/39/58 34/38/59
f 60/64/54 59/63/53 34/38/59 33/37/60
f 61/65/55 60/64/54 33/37/60 32/36/61
f 1/66/1 7/69/4 63/68/62 62/67/63
f 62/67/63 63/68/62 65/71/64 64/70/65
f 64/70/65 65/71/64 67/73/66 66/72/67
f 66/72/67 67/73/66 69/75/68 68/74/69
f 68/74/69 69/75/68 12/77/12 6/76/11
f 7/69/4 13/79/14 70/78/70 63/68/62
f 63/68/62 70/78/70 71/80/71 65/71/64
f 65/71/64 71/80/71 72/81/72 67/73/66
f 67/73/66 72/81/72 73/82/73 69/75/68
f 69/75/68 73/82/73 18/83/18 12/77/12
f 13/79/14 19/85/20 74/84/74 70/78/70
f 70/78/70 74/84/74 75/86/75 71/80/71
f 71/80/71 75/86/75 76/87/76 72/81/72
f 72/81/72 76/87/76 77/88/77 73/82/73
f 73/82/73 77/88/77 24/89/24 18/83/18
f 19/85/20 25/91/26 78/90/78 74/84/74
f 74/84/74 78/90/78 79/92/79 75/86/75
f 75/86/75 79/92/79 80/93/80 76/87/76
f 76/87/76 80/93/80 81/94/81 77/88/77
f 77/88/77 81/94/81 30/95/30 24/89/24
f 25/91/26 31/96/31 78/90/78
f 78/90/78 31/97/31 79/92/79
f 79/92/79 31/98/31 80/93/80
f 80/93/80 31/99/31 81/94/81
f 81/94/81 31/100/31 30/95/30
f 38/101/32 49/104/35 83/103/82 82/102/83
f 82/102/83 83/103/82 85/106/84 84/105/85
f 84/105/85 85/106/84 87/108/86 86/107/87
f 86/107/87 87/108/86 89/110/88 88/109/89
f 88/109/89 89/110/88 44/112/43 43/111/42
f 50/113/44 38/101/32 82/102/83 90/114/90
f 90/114/90 82/102/83 84/105/85 91/115/91
f 91/115/91 84/105/85 86/107/87 92/116/92
f 92/116/92 86/107/87 88/109/89 93/117/93
f 93/117/93 88/109/89 43/111/42 55/118/49
f 89/110/88 94/120/94 56/119/50 44/112/43
f 87/108/86 95/121/95 94/120/94 89/110/88
f 85/106/84 96/122/96 95/121/95 87/108/86
f 83/103/82 97/123/97 96/122/96 85/106/84
f 49/104/35 61/124/55 97/123/97 83/103/82
f 6/76/11 50/113/44 90/114/90 68/74/69
f 68/74/69 90/114/90 91/115/91 66/72/67
f 66/72/67 91/115/91 92/116/92 64/70/65
f 64/70/65 92/116/92 93/117/93 62/67/63
f 62/67/63 93/117/93 55/118/49 1/66/1
f 94/120/94 98/126/98 37/125/56 56/119/50
f 95/121/95 99/127/99 98/126/98 94/120/94
f 96/122/96 100/128/100 99/127/99 95/121/95
f 97/123/97 101/129/101 100/128/100 96/122/96
f 61/124/55 32/130/61 101/129/101 97/123/97
