# This file uses meters as units for non-parametric coordinates.

mtllib door.mtl
g default
v 5.699969 177.896239 95.760737
v 5.699969 234.182980 77.472061
v 5.699969 268.970097 29.591690
v 5.699969 268.970097 -29.591695
v 5.699969 234.182957 -77.472055
v 5.699969 177.896227 -95.760726
v -5.699969 177.896239 95.760737
v -5.699969 234.182980 77.472061
v -5.699969 268.970097 29.591690
v -5.699969 268.970097 -29.591695
v -5.699969 234.182957 -77.472055
v -5.699969 177.896227 -95.760726
v 5.699969 177.896227 0.000000
v -5.699969 177.896227 0.000000
v 5.699969 -0.216201 0.000005
v -5.699969 -0.216201 0.000005
v -5.699969 -0.216201 -95.760726
v 5.699969 -0.216201 -95.760726
v -5.699969 -0.216201 95.760737
v 5.699969 -0.216201 95.760737
vt 0.229904 0.870769
vt 0.163390 0.661670
vt 0.511660 0.661670
vt 0.404039 1.000000
vt 0.619281 1.000000
vt 0.793416 0.870769
vt 0.859929 0.661670
vt 0.511660 0.000000
vt 0.859929 0.000000
vt 0.163390 0.000000
vt 0.162128 0.661670
vt 0.228843 0.870769
vt 0.511450 0.661670
vt 0.403503 1.000000
vt 0.619396 1.000000
vt 0.794057 0.870769
vt 0.860771 0.661670
vt 0.860771 0.000000
vt 0.511450 0.000000
vt 0.162128 0.000000
vt 0.022218 0.915414
vt 0.022218 0.895351
vt 0.090484 0.895351
vt 0.090484 0.915414
vt 0.022218 0.882952
vt 0.090484 0.882952
vt 0.090484 0.978901
vt 0.022218 0.978901
vt 0.028357 0.972295
vt 0.028357 0.954991
vt 0.087235 0.954991
vt 0.087235 0.972295
vt 0.028357 0.900236
vt 0.087235 0.900236
vt 0.028357 0.982989
vt 0.087235 0.982989
vt 0.026745 0.852976
vt 0.068150 0.852976
vt 0.068150 0.986966
vt 0.026745 0.986966
vt 0.058202 0.989527
vt 0.058202 0.901710
vt 0.102110 0.901710
vt 0.102110 0.989527
vt 0.014294 0.901710
vt 0.014294 0.989527
vn 0.000000 0.077787 0.996970
vn 0.000000 0.309017 0.951056
vn 0.000000 0.309017 0.951056
vn 0.000000 0.077787 0.996970
vn 0.000000 0.809017 0.587785
vn 0.000000 0.809017 0.587785
vn 0.000000 0.809017 0.587785
vn 0.000000 0.809017 0.587785
vn 0.000000 1.000000 0.000000
vn 0.000000 1.000000 0.000000
vn 0.000000 1.000000 0.000000
vn 0.000000 1.000000 0.000000
vn 0.000000 0.809017 -0.587786
vn 0.000000 0.809017 -0.587786
vn 0.000000 0.809017 -0.587786
vn 0.000000 0.809017 -0.587786
vn 0.000000 0.309017 -0.951056
vn 0.000000 0.077787 -0.996970
vn 0.000000 0.077787 -0.996970
vn 0.000000 0.309017 -0.951056
vn 1.000000 -0.000000 -0.000000
vn 1.000000 0.000000 0.000000
vn 1.000000 0.000000 0.000000
vn 1.000000 -0.000000 -0.000000
vn 1.000000 -0.000000 -0.000000
vn 1.000000 -0.000000 -0.000000
vn 1.000000 -0.000000 -0.000000
vn -1.000000 0.000000 0.000000
vn -1.000000 0.000000 0.000000
vn -1.000000 -0.000000 -0.000000
vn -1.000000 0.000000 0.000000
vn -1.000000 0.000000 0.000000
vn -1.000000 0.000000 0.000000
vn -1.000000 -0.000000 -0.000000
vn -0.000000 -1.000000 -0.000000
vn -0.000000 -1.000000 -0.000000
vn -0.000000 -1.000000 -0.000000
vn -0.000000 -1.000000 -0.000000
vn -0.000000 -1.000000 -0.000000
vn -0.000000 -1.000000 -0.000000
vn -1.000000 -0.000000 -0.000000
vn -1.000000 -0.000000 -0.000000
vn 0.000000 0.000000 -1.000000
vn 0.000000 0.000000 -1.000000
vn 1.000000 0.000000 0.000000
vn 1.000000 -0.000000 -0.000000
vn -1.000000 0.000000 0.000000
vn 1.000000 0.000000 0.000000
vn -0.000000 -0.000000 1.000000
vn -0.000000 -0.000000 1.000000
s 1
g pCylinder1
usemtl lambert2SG
f 1/21/1 2/22/2 8/23/3 7/24/4
s off
f 2/22/5 3/25/6 9/26/7 8/23/8
f 3/37/9 4/38/10 10/39/11 9/40/12
f 4/35/13 5/29/14 11/32/15 10/36/16
s 2
f 5/29/17 6/30/18 12/31/19 11/32/20
s 3
f 2/1/21 1/2/22 13/3/23
f 3/4/24 2/1/21 13/3/23
f 4/5/25 3/4/24 13/3/23
f 5/6/26 4/5/25 13/3/23
f 6/7/27 5/6/26 13/3/23
s 4
f 7/11/28 8/12/29 14/13/30
f 8/12/29 9/14/31 14/13/30
f 9/14/31 10/15/32 14/13/30
f 10/15/32 11/16/33 14/13/30
f 11/16/33 12/17/34 14/13/30
s 5
f 15/41/35 16/42/36 17/43/37 18/44/38
f 19/45/39 16/42/36 15/41/35 20/46/40
s 4
f 14/13/30 12/17/34 17/18/41 16/19/42
s 2
f 12/31/19 6/30/18 18/33/43 17/34/44
s 3
f 6/7/27 13/3/23 15/8/45 18/9/46
s 4
f 7/11/28 14/13/30 16/19/42 19/20/47
s 3
f 13/3/23 1/2/22 20/10/48 15/8/45
s 1
f 1/21/1 7/24/4 19/27/49 20/28/50
